<?xml version="1.0" encoding="iso-8859-1"?>
<!-- Generator: Adobe Illustrator 19.0.0, SVG Export Plug-In . SVG Version: 6.00 Build 0)  -->
<svg fill="white" version="1.1" id="Layer_1" xmlns="http://www.w3.org/2000/svg" xmlns:xlink="http://www.w3.org/1999/xlink" x="0px" y="0px"
	 viewBox="0 0 505.888 505.888" style="enable-background:new 0 0 505.888 505.888;" xml:space="preserve">
<g>
	<g>
		<g>
			<path d="M252.944,29.6L150.68,196.944h204.528L252.944,29.6z M252.944,60.288l10.768,17.616c-3.392-0.592-6.984-0.96-10.768-0.96
				s-7.376,0.368-10.768,0.96L252.944,60.288z M179.208,180.944l27.624-45.2c-1.2,4.2-1.888,8.616-1.888,13.2
				c0,12.304,4.688,23.496,12.32,32H179.208z M252.944,180.944c-17.648,0-32-14.352-32-32s14.352-32,32-32s32,14.352,32,32
				S270.592,180.944,252.944,180.944z M252.944,100.944c-12.712,0-24.248,5-32.848,13.096l9.008-14.744
				c5.672-3.08,13.912-6.352,23.84-6.352c9.92,0,18.16,3.272,23.84,6.352l9.008,14.744
				C277.192,105.944,265.656,100.944,252.944,100.944z M299.056,135.744l27.624,45.2h-38.056c7.632-8.504,12.32-19.696,12.32-32
				C300.944,144.36,300.256,139.944,299.056,135.744z"/>
			<path d="M252.944,124.944c-13.232,0-24,10.768-24,24s10.768,24,24,24s24-10.768,24-24S266.176,124.944,252.944,124.944z
				 M252.944,156.944c-4.416,0-8-3.592-8-8s3.584-8,8-8s8,3.592,8,8S257.36,156.944,252.944,156.944z"/>
			<path d="M505.888,500.944l-141.28-282.568c15.296-22,24.336-48.664,24.336-77.432c0-74.992-61.008-136-136-136
				s-136,61.008-136,136c0,28.768,9.04,55.432,24.336,77.432L0,500.944H505.888z M124.944,484.944h-48v-40h48V484.944z
				 M380.944,372.944h-48v-40h48V372.944z M412.944,388.944v40h-48v-40H412.944z M348.944,388.944v40h-48v-40H348.944z
				 M348.944,316.944h-48v-40h48V316.944z M316.944,332.944v40h-48v-40H316.944z M284.944,316.944h-48v-40h48V316.944z
				 M252.944,332.944v40h-48v-40H252.944z M220.944,388.944v24h16v-24h48v40h-112v-40H220.944z M188.944,372.944h-48v-40h48V372.944
				z M156.944,388.944v40h-48v-40H156.944z M188.944,484.944h-48v-40h48V484.944z M252.944,484.944h-48v-40h48V484.944z
				 M316.944,484.944h-48v-40h48V484.944z M444.944,484.944h-48v-24h-16v24h-48v-40h112V484.944z M460.944,446.832L480,484.944
				h-19.056V446.832z M428.944,388.944v-6.104L452,428.944h-23.056V388.944z M396.944,332.944H404l20,40h-27.056V332.944z
				 M396,316.944h-31.056v-40H376L396,316.944z M368,260.944h-51.192c13.896-7.424,26.272-17.256,36.768-28.84L368,260.944z
				 M132.944,140.944c0-66.168,53.832-120,120-120s120,53.832,120,120s-53.832,120-120,120S132.944,207.112,132.944,140.944z
				 M152.312,232.104c10.496,11.576,22.872,21.416,36.768,28.84h-51.192L152.312,232.104z M129.888,276.944h27.056v24h16v-24h48v40
				H109.888L129.888,276.944z M101.888,332.944h23.056v40H81.888L101.888,332.944z M73.888,388.944h19.056v40H53.888L73.888,388.944
				z M60.944,444.944v40H25.888l20-40H60.944z"/>
		</g>
	</g>
</g>
<g>
</g>
<g>
</g>
<g>
</g>
<g>
</g>
<g>
</g>
<g>
</g>
<g>
</g>
<g>
</g>
<g>
</g>
<g>
</g>
<g>
</g>
<g>
</g>
<g>
</g>
<g>
</g>
<g>
</g>
</svg>
