<?xml version="1.0"?>
<svg fill="white" xmlns="http://www.w3.org/2000/svg" width="512" height="512" viewBox="0 0 128 128"><g><path d="M64,0a64,64,0,1,0,64,64A64.072,64.072,0,0,0,64,0Zm0,124.5A60.5,60.5,0,1,1,124.5,64,60.568,60.568,0,0,1,64,124.5Z"/><path d="M64,10a54,54,0,1,0,54,54A54.061,54.061,0,0,0,64,10Zm0,104.5A50.5,50.5,0,1,1,114.5,64,50.557,50.557,0,0,1,64,114.5Z"/><path d="M64,28.343a1.751,1.751,0,0,0,1.75-1.75V18.756a1.75,1.75,0,0,0-3.5,0v7.837A1.751,1.751,0,0,0,64,28.343Z"/><path d="M64,99.66a1.75,1.75,0,0,0-1.75,1.75v7.836a1.75,1.75,0,0,0,3.5,0V101.41A1.75,1.75,0,0,0,64,99.66Z"/><path d="M94.755,30.771l-5.541,5.541a1.75,1.75,0,0,0,2.475,2.475l5.541-5.541a1.75,1.75,0,1,0-2.475-2.475Z"/><path d="M36.311,89.215,30.77,94.756a1.75,1.75,0,1,0,2.475,2.475l5.541-5.541a1.75,1.75,0,1,0-2.475-2.475Z"/><path d="M109.245,62.251h-7.837a1.75,1.75,0,0,0,0,3.5h7.837a1.75,1.75,0,0,0,0-3.5Z"/><path d="M26.592,62.251H18.755a1.75,1.75,0,0,0,0,3.5h7.837a1.75,1.75,0,0,0,0-3.5Z"/><path d="M91.689,89.215a1.75,1.75,0,0,0-2.475,2.475l5.541,5.541a1.75,1.75,0,1,0,2.475-2.475Z"/><path d="M33.245,30.771a1.75,1.75,0,1,0-2.475,2.475l5.541,5.541a1.75,1.75,0,0,0,2.475-2.475Z"/><path d="M73.479,65.348a9.434,9.434,0,0,0-3.729-9V38.6a5.75,5.75,0,1,0-11.5,0V56.351a9.554,9.554,0,0,0,7.1,17.129l9.674,9.674a5.75,5.75,0,0,0,8.132-8.132ZM61.75,38.6a2.25,2.25,0,1,1,4.5,0v16.1a9.277,9.277,0,0,0-4.5,0ZM57.916,64A6.084,6.084,0,1,1,64,70.085,6.091,6.091,0,0,1,57.916,64ZM80.679,80.68a2.254,2.254,0,0,1-3.183,0l-8.509-8.51a9.641,9.641,0,0,0,3.182-3.182l8.51,8.509A2.254,2.254,0,0,1,80.679,80.68Z"/></g></svg>
