<?xml version="1.0" encoding="iso-8859-1"?>
<!-- Generator: Adobe Illustrator 19.0.0, SVG Export Plug-In . SVG Version: 6.00 Build 0)  -->
<svg version="1.1" id="Layer_1" xmlns="http://www.w3.org/2000/svg" xmlns:xlink="http://www.w3.org/1999/xlink" x="0px" y="0px"
	 viewBox="0 0 512.006 512.006" style="enable-background:new 0 0 512.006 512.006;" xml:space="preserve">
<g>
	<g>
		<path d="M239.544,256.006L423.336,82.422c2.083-1.979,3.292-4.708,3.333-7.604c0.042-2.875-1.083-5.646-3.125-7.688l-64-64
			c-4.104-4.125-10.75-4.167-14.917-0.167l-256,245.333c-2.104,2.021-3.292,4.792-3.292,7.708c0,2.917,1.188,5.688,3.292,7.708
			l256,245.333c2.063,1.979,4.708,2.958,7.375,2.958c2.729,0,5.458-1.042,7.542-3.125l64-64c2.042-2.042,3.167-4.813,3.125-7.688
			c-0.042-2.896-1.25-5.625-3.333-7.604L239.544,256.006z M351.836,486.422L111.419,256.006L351.836,25.589l48.854,48.875
			L216.669,248.256c-2.125,2-3.333,4.813-3.333,7.75s1.208,5.75,3.333,7.75L400.69,437.547L351.836,486.422z"/>
	</g>
</g>
<g>
</g>
<g>
</g>
<g>
</g>
<g>
</g>
<g>
</g>
<g>
</g>
<g>
</g>
<g>
</g>
<g>
</g>
<g>
</g>
<g>
</g>
<g>
</g>
<g>
</g>
<g>
</g>
<g>
</g>
</svg>
