<svg fill="white" height="512" viewBox="0 0 56 56" width="512" xmlns="http://www.w3.org/2000/svg"><g id="001---System-Prefs"><path id="Shape" d="m35.739 44.243c-7.9163759 3.7655905-17.3942619 1.2805657-22.4446298-5.8847998-5.05036791-7.1653654-4.20431341-16.9270181 2.003546-23.1166191 6.2078593-6.18960095 15.9719617-7.00689882 23.1224202-1.9354472 7.1504585 5.0714516 9.6075554 14.5566161 5.8186636 22.4618661l2.961 2.967c.9421178-1.6765275 1.6580106-3.4704627 2.129-5.335.2640092-1.1042886 1.1312715-1.9634131 2.238-2.217l4.433-.99v-4.393l-4.42-.983c-1.0891351-.2381218-1.9528571-1.0666923-2.236-2.145-.5274473-2.1179142-1.3680405-4.1452469-2.494-6.015-.5599308-.9557413-.5355818-2.1449786.063-3.077l2.437-3.825-3.11-3.111-3.826 2.437c-.9318813.59904151-2.1213798.62339588-3.077.063-1.8697531-1.12595951-3.8970858-1.96655266-6.015-2.494-1.0763321-.2836212-1.9033802-1.14580527-2.142-2.233l-.987-4.417h-4.393l-.983 4.42c-.2381218 1.08913511-1.0666923 1.95285713-2.145 2.236-2.1179142.52744734-4.1452469 1.36804049-6.015 2.494-.9556202.56039588-2.1451187.53604151-3.077-.063l-3.828-2.444-3.11 3.119 2.442 3.821c.59858175.9320214.62293078 2.1212587.063 3.077-1.12595951 1.8697531-1.96655266 3.8970858-2.494 6.015-.28314287 1.0783077-1.14686489 1.9068782-2.236 2.145l-4.417.987v4.393l4.42.98c1.08913511.2381218 1.95285713 1.0666923 2.236 2.145.52744734 2.1179142 1.36804049 4.1452469 2.494 6.015.55993078.9557413.53558175 2.1449786-.063 3.077l-2.44 3.825 3.11 3.111 3.826-2.437c.9321611-.5981228 2.1211378-.6224665 3.077-.063 1.8697531 1.1259595 3.8970858 1.9665527 6.015 2.494 1.0783077.2831429 1.9068782 1.1468649 2.145 2.236l.986 4.417h4.394l.986-4.435c.2535527-1.1052684 1.1112926-1.9715315 2.214-2.236 1.8577276-.4668294 3.6453194-1.1780327 5.316-2.115-1.791-1.789-1.108-1.107-2.977-2.971zm13.261-17.243c0-.5522847.4477153-1 1-1s1 .4477153 1 1v2c0 .5522847-.4477153 1-1 1s-1-.4477153-1-1zm-6.858-15.971c.3904999-.3903819 1.0235001-.3903819 1.414 0l1.415 1.415c.2599566.2510745.3642126.6228779.2726972.9725073-.0915155.3496295-.3645604.6226744-.7141899.7141899-.3496294.0915154-.7214328-.0127406-.9725073-.2726972l-1.415-1.415c-.3903819-.3904999-.3903819-1.0235001 0-1.414zm-15.142-6.029h2c.5522847 0 1 .44771525 1 1s-.4477153 1-1 1h-2c-.5522847 0-1-.44771525-1-1s.4477153-1 1-1zm-15.971 7.444 1.415-1.415c.3923789-.3789722 1.0160848-.3735524 1.4018186.0121814s.3911536 1.0094397.0121814 1.4018186l-1.415 1.415c-.3923789.3789722-1.0160848.3735524-1.4018186-.0121814s-.3911536-1.0094397-.0121814-1.4018186zm-4.029 16.556c0 .5522847-.44771525 1-1 1s-1-.4477153-1-1v-2c0-.5522847.44771525-1 1-1s1 .4477153 1 1zm6.858 15.971c-.3904999.3903819-1.0235001.3903819-1.414 0l-1.415-1.415c-.3789722-.3923789-.3735524-1.0160848.0121814-1.4018186s1.0094397-.3911536 1.4018186-.0121814l1.415 1.415c.3903819.3904999.3903819 1.0235001 0 1.414zm15.142 6.029h-2c-.5522847 0-1-.4477153-1-1s.4477153-1 1-1h2c.5522847 0 1 .4477153 1 1s-.4477153 1-1 1z"/><path id="Shape" d="m42.722 34.257c2.9970543-7.0476357.5797453-15.230783-5.7658125-19.5186028-6.3455578-4.2878199-14.8397396-3.4777842-20.2604884 1.9321128-5.4207487 5.4098971-6.2478042 13.9024386-1.9727087 20.256576 4.2750954 6.3541374 12.4533823 8.7878396 19.5070096 5.804914l-3.144-3.142c-4.2441916 1.1390927-8.7714376-.1356639-11.7977174-3.3219352-3.0262799-3.1862713-4.0663214-7.7731302-2.7102826-11.9530648.1070869-.3311421.378638-.5827912.7169584-.6644125.3383203-.0816213.6947439.0185261.9410416.2644125l6.4 6.393 4.631-1.016 1.033-4.642-6.4-6.393c-.2458864-.2462977-.3460338-.6027213-.2644125-.9410416.0816213-.3383204.3332704-.6098715.6644125-.7169584 4.1819053-1.3502826 8.7673978-.3066948 11.9530925 2.7203407 3.1856948 3.0270355 4.4619761 7.5532837 3.3269075 11.7986593z"/><circle id="Oval" cx="50" cy="50" r="1"/><path id="Shape" d="m37.469 31.454c-.0002656-.0706428.00745-.1410894.023-.21.0018693-.0473287.0072171-.0944558.016-.141 1.066511-3.2826347.36481-6.8832038-1.8563146-9.5251239-2.2211246-2.64192-5.6476445-3.9516695-9.0646854-3.4648761l5.51 5.51c.2414049.2411425.3431931.5887301.27.922l-1.281 5.8c-.0840564.3804537-.3814362.6774433-.762.761l-5.79 1.27c-.3327794.0730854-.6798717-.0282912-.921-.269l-5.513-5.507c-.4901988 3.4141711.8158406 6.8396489 3.4546388 9.0608204 2.6387982 2.2211716 6.2368729 2.9236635 9.5173612 1.8581796.81-.262.266-.5 16.061 15.28.9988221 1.0640103 2.4978433 1.4996099 3.9113438 1.1365948s2.5171194-1.4670245 2.8796345-2.8806533c.362515-1.4136288-.0736148-2.9124958-1.1379783-3.9109415-15.999-15.985-15.295-15.178-15.317-15.69zm8.531 15.546c-.2651948-.0000566-.5195073-.1054506-.707-.293l-11-11c-.3789722-.3923789-.3735524-1.0160848.0121814-1.4018186s1.0094397-.3911536 1.4018186-.0121814l11 11c.2859079.2859943.3714219.7160366.216678 1.0896546-.1547439.3736179-.5192821.6172591-.923678.6173454zm4 6c-1.6568542 0-3-1.3431458-3-3s1.3431458-3 3-3 3 1.3431458 3 3-1.3431458 3-3 3z"/></g></svg>